# xmcd CD database file
# Copyright (C) 1993-1998 Ti Kan
#
# Track frame offsets:
#	150
#	27467
#	39830
#	54888
#	70661
#	108125
#	123993
#	137444
#	166201
#	177610
#	197649
#	219751
#	239837
#	255603
#	278719
#
# Disc length: 3924 seconds
#
# Revision: 1
# Processed by: cddbd v1.4b41PL1 Copyright (c) Steve Scherf et al.
# Submitted via: CDValet v3.31 - Copyright (c) 1997 Greg Leichner
#
DISCID=cb0f520f
DTITLE=Karen Akers - Live from Rainbow and Stars
DYEAR=1900
DGENRE=
TTITLE0=Fun to be Fooled/How Little We Know
TTITLE1=Planes
TTITLE2=How Do You Say Auf Wiedersehen
TTITLE3=Newt - Torch Song I
TTITLE4=There's a Lull in My Life/I Don't Want to Walk without 
TTITLE4=You/My Melancholy Baby
TTITLE5=What Ever Happened to Melody
TTITLE6=Strom - Torch Song II
TTITLE7=Ricorda/You Don't Have to Say You Love Me
TTITLE8=Ruch - Torch Song III
TTITLE9=Laughing Matters
TTITLE10=Chanson
TTITLE11=It's Time for a Love Song/E L'Amore Che Fa Amare?
TTITLE12=My Brother Lived in San Fransisco
TTITLE13=Around the World
TTITLE14=Non, Je Ne Regrette Rien
EXTD=
EXTT0=
EXTT1=
EXTT2=
EXTT3=
EXTT4=
EXTT5=
EXTT6=
EXTT7=
EXTT8=
EXTT9=
EXTT10=
EXTT11=
EXTT12=
EXTT13=
EXTT14=
PLAYORDER=
